<svg width="64" height="64" viewBox="0 0 64 64" fill="none" xmlns="http://www.w3.org/2000/svg">
  <defs>
    <linearGradient id="dispatchBg" x1="16" y1="52" x2="52" y2="16" gradientUnits="userSpaceOnUse">
      <stop stop-color="#1D4ED8" stop-opacity="0.2" />
      <stop offset="0.5" stop-color="#2563EB" stop-opacity="0.18" />
      <stop offset="1" stop-color="#22D3EE" stop-opacity="0.26" />
    </linearGradient>
    <linearGradient id="dispatchCore" x1="24" y1="40" x2="40" y2="24" gradientUnits="userSpaceOnUse">
      <stop stop-color="#38BDF8" />
      <stop offset="0.5" stop-color="#60A5FA" />
      <stop offset="1" stop-color="#C084FC" />
    </linearGradient>
    <linearGradient id="dispatchPath" x1="14" y1="50" x2="50" y2="14" gradientUnits="userSpaceOnUse">
      <stop stop-color="#22D3EE" />
      <stop offset="1" stop-color="#6366F1" />
    </linearGradient>
  </defs>
  <rect x="6" y="6" width="52" height="52" rx="16" fill="url(#dispatchBg)" />
  <g stroke="url(#dispatchPath)" stroke-width="2.4" stroke-linecap="round" stroke-linejoin="round">
    <path d="M20 44L16 48" opacity="0.6" />
    <path d="M44 40L48 44" opacity="0.6" />
    <path d="M44 24L48 20" opacity="0.6" />
    <path d="M20 20L16 16" opacity="0.6" />
    <path d="M16 16H26" />
    <path d="M48 20V30" />
    <path d="M48 44H38" />
    <path d="M16 48V36" />
    <path d="M24 32L16 36" />
    <path d="M32 24L26 16" />
    <path d="M40 32L48 30" />
    <path d="M32 40L38 48" />
  </g>
  <circle cx="32" cy="32" r="12" fill="url(#dispatchCore)" />
  <g stroke="white" stroke-opacity="0.9" stroke-width="1.6" stroke-linecap="round">
    <path d="M32 22V18" />
    <path d="M42 32H46" />
    <path d="M32 42V46" />
    <path d="M22 32H18" />
  </g>
  <g fill="white">
    <circle cx="32" cy="18" r="2.2" fill="#60A5FA" />
    <circle cx="46" cy="32" r="2.2" fill="#22D3EE" />
    <circle cx="32" cy="46" r="2.2" fill="#34D399" />
    <circle cx="18" cy="32" r="2.2" fill="#F472B6" />
  </g>
  <path d="M32 26L29 29H35L32 26Z" fill="white" fill-opacity="0.85" />
  <path d="M32 38L29 35H35L32 38Z" fill="white" fill-opacity="0.85" />
  <rect x="6" y="6" width="52" height="52" rx="16" stroke="url(#dispatchPath)" stroke-opacity="0.2" stroke-width="1.1" />
</svg>
