<svg width="64" height="64" viewBox="0 0 64 64" fill="none" xmlns="http://www.w3.org/2000/svg">
  <defs>
    <linearGradient id="signalBg" x1="12" y1="52" x2="52" y2="12" gradientUnits="userSpaceOnUse">
      <stop stop-color="#0EA5E9" stop-opacity="0.22" />
      <stop offset="0.5" stop-color="#7C3AED" stop-opacity="0.18" />
      <stop offset="1" stop-color="#10B981" stop-opacity="0.24" />
    </linearGradient>
    <linearGradient id="signalLine" x1="10" y1="46" x2="54" y2="18" gradientUnits="userSpaceOnUse">
      <stop stop-color="#38BDF8" />
      <stop offset="0.5" stop-color="#A855F7" />
      <stop offset="1" stop-color="#34D399" />
    </linearGradient>
    <radialGradient id="signalGlow" cx="0" cy="0" r="1" gradientUnits="userSpaceOnUse" gradientTransform="translate(32 32) rotate(90) scale(32)">
      <stop stop-color="#0EA5E9" stop-opacity="0.55" />
      <stop offset="1" stop-color="#0EA5E9" stop-opacity="0" />
    </radialGradient>
  </defs>
  <rect x="4" y="4" width="56" height="56" rx="18" fill="url(#signalBg)" />
  <rect x="4" y="4" width="56" height="56" rx="18" fill="url(#signalGlow)" />
  <g stroke="url(#signalLine)" stroke-width="2.5" stroke-linecap="round" stroke-linejoin="round">
    <path d="M10 40C16 36 20 28 28 30C34 31.5 36.5 38 42 39.5C46 40.5 50 38 54 32" />
    <path d="M10 28C16 31 22 22 28 22C34 22 38 30 44 30C47 30 51 27 54 22" opacity="0.7" />
    <path d="M12 48C18 46 22 38 30 38C36 38 40 44 46 45C49 45.5 52 44 54 42" opacity="0.5" />
  </g>
  <g fill="white">
    <circle cx="18" cy="34" r="3" fill="#38BDF8" />
    <circle cx="30" cy="34" r="3.5" fill="#F472B6" />
    <circle cx="44" cy="38" r="3" fill="#34D399" />
    <circle cx="26" cy="22" r="2.5" fill="#22D3EE" />
    <circle cx="44" cy="30" r="2.5" fill="#C084FC" />
  </g>
  <rect x="4" y="4" width="56" height="56" rx="18" stroke="url(#signalLine)" stroke-opacity="0.18" stroke-width="1.2" />
</svg>
