<svg width="1957" height="190" viewBox="0 0 1957 190" fill="none" xmlns="http://www.w3.org/2000/svg">
<g clip-path="url(#clip0_2709_4457)">
<path d="M1005 145.944V0.625H1018.78V63.4712H1103.76V0.625H1117.33V145.944H1103.76V75.1634H1018.78V145.944H1005Z" fill="white"/>
<path d="M1153.31 189.999L1172.1 143.23L1131.39 45.5156H1145.59L1172.31 111.702C1173.84 115.739 1176 121.098 1178.78 127.779C1179.2 126.805 1179.62 125.726 1180.04 124.543C1180.46 123.36 1180.87 122.281 1181.29 121.307C1182.13 119.497 1182.86 117.792 1183.48 116.191C1184.11 114.591 1184.7 113.025 1185.26 111.494L1210.31 45.5156H1223.88L1166.88 189.999H1153.31Z" fill="white"/>
<path d="M1237.66 190.002V45.5188H1250.61V63.8924C1253.95 57.6286 1258.79 52.5133 1265.12 48.5462C1271.45 44.5792 1278.52 42.5957 1286.31 42.5957C1295.64 42.5957 1303.75 44.8576 1310.64 49.3814C1317.53 53.9052 1322.82 60.169 1326.5 68.1726C1330.19 76.1763 1332.04 85.2587 1332.04 95.4199C1332.04 105.581 1330.12 114.907 1326.3 122.98C1322.47 131.054 1317.07 137.387 1310.11 141.98C1303.15 146.574 1295.22 148.87 1286.31 148.87C1278.8 148.87 1271.87 147.061 1265.54 143.442C1259.2 139.823 1254.23 134.533 1250.61 127.574V190.002H1237.66ZM1284.43 138.431C1291.25 138.431 1297.27 136.621 1302.49 133.002C1307.71 129.383 1311.72 124.337 1314.5 117.865C1317.28 111.392 1318.68 103.911 1318.68 95.4199C1318.68 86.929 1317.25 79.8997 1314.39 73.4968C1311.54 67.0939 1307.54 62.1177 1302.39 58.5682C1297.24 55.0188 1291.25 53.244 1284.43 53.244C1277.61 53.244 1271.8 54.984 1266.58 58.4638C1261.36 61.9437 1257.29 66.8851 1254.37 73.288C1251.44 79.6909 1249.98 87.0682 1249.98 95.4199C1249.98 103.772 1251.44 111.392 1254.37 117.865C1257.29 124.337 1261.33 129.383 1266.48 133.002C1271.63 136.621 1277.61 138.431 1284.43 138.431Z" fill="white"/>
<path d="M1393.84 148.87C1384.37 148.87 1376.06 146.782 1368.89 142.607C1361.72 138.431 1356.15 132.306 1352.19 124.233C1348.22 116.16 1346.23 106.486 1346.23 95.2111C1346.23 85.1891 1348.29 76.1763 1352.39 68.1726C1356.5 60.169 1362.1 53.9052 1369.2 49.3814C1376.3 44.8576 1384.23 42.5957 1393 42.5957C1402.47 42.5957 1410.54 44.7532 1417.22 49.0682C1423.9 53.3832 1428.99 59.473 1432.47 67.3374C1435.95 75.2019 1437.69 84.3539 1437.69 94.7935V97.5078H1359.18C1359.18 106.138 1360.64 113.515 1363.56 119.64C1366.49 125.764 1370.59 130.427 1375.88 133.629C1381.17 136.83 1387.23 138.431 1394.05 138.431C1402.12 138.431 1408.84 136.517 1414.2 132.689C1419.55 128.861 1422.86 123.119 1424.11 115.464H1437.06C1436.08 121.867 1433.82 127.574 1430.27 132.585C1426.72 137.596 1421.85 141.563 1415.66 144.486C1409.46 147.409 1402.19 148.87 1393.84 148.87ZM1423.9 87.6946C1423.77 77.255 1420.98 68.9034 1415.55 62.6396C1410.12 56.3759 1402.61 53.244 1393 53.244C1383.4 53.244 1375.99 56.4803 1369.93 62.9528C1363.88 69.4254 1360.43 77.6726 1359.6 87.6946H1423.9Z" fill="white"/>
<path d="M1457.73 145.947V45.5188H1470.67V65.5627C1473.46 58.8814 1477.81 53.3832 1483.72 49.0682C1489.64 44.7532 1496.56 42.5957 1504.5 42.5957C1506.45 42.5957 1508.33 42.7349 1510.14 43.0133V55.5407C1507.77 55.2623 1505.68 55.1232 1503.87 55.1232C1497.19 55.1232 1491.34 56.6195 1486.33 59.6122C1481.32 62.6049 1477.46 66.8851 1474.75 72.4528C1472.03 78.0206 1470.67 84.4931 1470.67 91.8704V145.947H1457.73Z" fill="white"/>
<path d="M1542.26 143.126L1541.66 145.945H1500.71L1501.3 143.126C1512.61 141.908 1517.23 138.672 1519.04 130.216L1542.05 21.8187C1544.48 10.718 1541.04 8.90842 1529.34 11.3095L1529.94 8.49085L1554.96 0H1557.78L1530.11 130.181C1528.3 138.672 1531.33 141.874 1542.22 143.092L1542.26 143.126Z" fill="white"/>
<path d="M1588.4 143.128L1587.81 145.947H1546.85L1547.44 143.128C1558.75 141.91 1563.38 138.674 1565.19 130.218L1579.11 64.2052C1581.54 52.8956 1578.31 51.2949 1566.41 53.696L1567 50.8773L1592.02 42.3865H1594.84L1576.25 130.183C1574.44 138.674 1577.47 141.875 1588.36 143.093L1588.4 143.128ZM1595.25 5.88281C1600.72 5.88281 1604.34 10.1282 1603.75 15.5568C1602.94 21.0202 1598.11 25.0568 1592.85 25.0568C1587.22 25.0568 1583.35 21.0202 1584.19 15.5568C1584.78 10.0934 1589.65 5.88281 1595.29 5.88281H1595.25Z" fill="white"/>
<path d="M1658.94 175.072L1670.18 123.152C1663.11 138.498 1648.39 148.973 1632.84 148.973C1607.82 148.973 1596.09 125.344 1603.57 90.024C1608.83 64.3774 1631.83 42.3848 1659.07 42.3848C1671.6 42.3848 1681.87 48.0221 1686.11 56.3042L1695.61 42.3848H1698.43L1670.04 175.002C1668.02 184.084 1675.29 185.894 1682.56 187.112L1681.97 189.931H1634.96L1635.55 187.112C1649.09 185.894 1656.95 184.084 1658.97 175.002L1658.94 175.072ZM1639.52 141.526C1652.43 141.526 1665.34 130.425 1671.39 117.097L1679.88 77.3225C1682.11 62.9855 1675.26 48.0569 1655.66 48.0569C1636.07 48.0569 1620.76 65.0038 1615.72 89.8152C1609.24 120.299 1618.33 141.491 1639.52 141.491V141.526Z" fill="white"/>
<path d="M1838.46 143.128L1837.87 145.947H1796.91L1797.5 143.128C1808.81 141.91 1813.44 138.674 1815.25 130.218L1829.17 64.2052C1831.61 52.8956 1828.37 51.2949 1816.47 53.696L1817.06 50.8773L1842.08 42.3865H1844.9L1826.32 130.183C1824.51 138.674 1827.53 141.875 1838.43 143.093L1838.46 143.128ZM1845.32 5.88281C1850.78 5.88281 1854.4 10.1282 1853.81 15.5568C1853.01 21.0202 1848.17 25.0568 1842.91 25.0568C1837.28 25.0568 1833.41 21.0202 1834.25 15.5568C1834.84 10.0934 1839.71 5.88281 1845.35 5.88281H1845.32Z" fill="white"/>
<path d="M1780.31 130.008L1789.6 85.6748L1798.76 42.4551H1795.94L1770.92 50.9459L1770.32 53.7646C1782.02 51.3287 1785.46 52.9642 1783.03 64.2737L1771.13 120.578C1758.01 132.896 1748.72 140.169 1737.41 140.169C1723.49 140.169 1716.21 130.669 1719.66 114.349L1735 42.4899H1732.19L1706.96 50.9807L1706.37 53.7994C1718.27 51.3635 1721.5 52.999 1719.28 64.3085L1708.38 115.984C1704.14 135.158 1713.85 149.078 1731.8 149.078C1743.7 149.078 1754.18 142.431 1770.29 125.136L1769.52 128.79V128.964H1769.49L1765.87 146.085H1791.87L1792.46 143.023C1781.56 141.805 1778.54 138.569 1780.35 130.113L1780.31 130.008Z" fill="white"/>
<path d="M1947.59 38.6596L1955.73 0.0332031H1952.91L1927.89 8.52405L1927.3 11.3427C1938.99 8.90683 1942.44 10.7511 1940 21.8519L1932.94 54.7365C1928.48 47.2548 1918.81 42.4178 1907.5 42.4178C1880.04 42.4178 1857.25 64.2017 1851.41 91.8665C1844.34 125.378 1855.86 148.971 1881.09 148.971C1896.82 148.971 1911.78 138.288 1918.64 122.942L1916.83 131.746L1913.8 145.943L1939.79 145.735L1940.39 142.916C1929.49 141.698 1926.47 138.462 1928.28 130.006L1947.55 38.6596H1947.59ZM1919.82 116.887C1913.76 130.423 1900.85 141.524 1887.74 141.524C1866.54 141.524 1857.46 120.332 1863.52 91.6577C1869.15 65.0021 1885.3 48.0552 1904.09 48.0552C1924.13 48.0552 1930.82 63.9581 1928.17 78.4343L1927.23 82.8189L1919.85 116.887H1919.82Z" fill="white"/>
</g>
<path d="M865.923 189.939L884.714 143.169L844 45.4551H858.198L884.923 111.642C886.454 115.678 888.612 121.037 891.396 127.719C891.813 126.744 892.231 125.666 892.648 124.483C893.066 123.299 893.483 122.221 893.901 121.246C894.736 119.437 895.467 117.732 896.093 116.131C896.72 114.53 897.311 112.964 897.868 111.433L922.923 45.4551H936.494L879.494 189.939H865.923Z" fill="white"/>
<path d="M754.232 145.455V8H766.246V62.0288H767.32C768.662 58.9414 770.586 55.7646 773.092 52.4982C775.642 49.2319 778.976 46.5025 783.092 44.31C787.253 42.0728 792.488 40.9542 798.797 40.9542C807.254 40.9542 814.682 43.1914 821.08 47.6658C827.478 52.0955 832.467 58.315 836.047 66.3242C839.626 74.2887 841.416 83.5731 841.416 94.1776C841.416 104.827 839.626 114.156 836.047 122.165C832.512 130.174 827.546 136.416 821.147 140.891C814.793 145.365 807.411 147.602 798.999 147.602C792.734 147.602 787.499 146.484 783.293 144.246C779.132 142.009 775.776 139.257 773.226 135.991C770.675 132.68 768.707 129.458 767.32 126.326H765.843V145.455H754.232ZM766.044 93.9762C766.044 102.299 767.275 109.681 769.736 116.125C772.242 122.523 775.821 127.557 780.474 131.226C785.173 134.85 790.855 136.662 797.522 136.662C804.368 136.662 810.162 134.783 814.905 131.025C819.648 127.221 823.25 122.098 825.711 115.655C828.172 109.212 829.402 101.985 829.402 93.9762C829.402 86.0565 828.172 78.9197 825.711 72.5661C823.295 66.2124 819.715 61.1786 814.972 57.4648C810.229 53.7063 804.413 51.8271 797.522 51.8271C790.81 51.8271 785.106 53.6392 780.407 57.2635C775.754 60.843 772.197 65.8097 769.736 72.1634C767.275 78.4723 766.044 85.7433 766.044 93.9762Z" fill="white"/>
<path d="M637.138 147.602C628.681 147.602 621.276 145.365 614.922 140.891C608.568 136.416 603.602 130.174 600.022 122.165C596.487 114.156 594.72 104.827 594.72 94.1776C594.72 83.5731 596.487 74.2887 600.022 66.3242C603.602 58.315 608.591 52.0955 614.989 47.6658C621.388 43.1914 628.838 40.9542 637.339 40.9542C643.603 40.9542 648.816 42.0728 652.977 44.31C657.138 46.5025 660.472 49.2319 662.977 52.4982C665.483 55.7646 667.43 58.9414 668.817 62.0288H669.89V8H681.904V145.455H670.226V126.326H668.817C667.43 129.458 665.461 132.68 662.91 135.991C660.36 139.257 656.982 142.009 652.776 144.246C648.615 146.484 643.402 147.602 637.138 147.602ZM638.547 136.662C645.214 136.662 650.897 134.85 655.595 131.226C660.293 127.557 663.872 122.523 666.333 116.125C668.839 109.681 670.092 102.299 670.092 93.9762C670.092 85.7433 668.861 78.4723 666.4 72.1634C663.939 65.8097 660.36 60.843 655.662 57.2635C650.964 53.6392 645.259 51.8271 638.547 51.8271C631.656 51.8271 625.84 53.7063 621.097 57.4648C616.399 61.1786 612.819 66.2124 610.358 72.5661C607.942 78.9197 606.734 86.0565 606.734 93.9762C606.734 101.985 607.964 109.212 610.425 115.655C612.886 122.098 616.466 127.221 621.164 131.025C625.907 134.783 631.701 136.662 638.547 136.662Z" fill="white"/>
<path d="M537.604 148.73C528.139 148.73 519.822 146.642 512.654 142.466C505.485 138.29 499.918 132.166 495.951 124.092C491.983 116.019 490 106.345 490 95.0704C490 85.0485 492.053 76.0357 496.159 68.032C500.266 60.0283 505.868 53.7646 512.967 49.2408C520.066 44.717 528 42.4551 536.769 42.4551C546.234 42.4551 554.308 44.6126 560.989 48.9276C567.67 53.2426 572.751 59.3323 576.231 67.1968C579.711 75.0613 581.451 84.2133 581.451 94.6529V97.3672H502.945C502.945 105.997 504.407 113.374 507.33 119.499C510.253 125.624 514.359 130.287 519.648 133.488C524.938 136.689 530.993 138.29 537.813 138.29C545.886 138.29 552.603 136.376 557.962 132.548C563.32 128.721 566.626 122.979 567.879 115.323H580.824C579.85 121.726 577.588 127.433 574.038 132.444C570.489 137.455 565.617 141.422 559.423 144.345C553.229 147.268 545.956 148.73 537.604 148.73ZM567.67 87.554C567.531 77.1144 564.747 68.7627 559.319 62.499C553.89 56.2353 546.374 53.1034 536.769 53.1034C527.165 53.1034 519.753 56.3397 513.698 62.8122C507.643 69.2847 504.198 77.532 503.363 87.554H567.67Z" fill="white"/>
<path d="M433.744 145.807V45.3781H446.689V65.4221C449.473 58.7408 453.823 53.2426 459.739 48.9276C465.655 44.6126 472.579 42.4551 480.513 42.4551C482.462 42.4551 484.341 42.5943 486.151 42.8726V55.4001C483.785 55.1217 481.697 54.9825 479.887 54.9825C473.206 54.9825 467.36 56.4789 462.349 59.4716C457.338 62.4642 453.475 66.7444 450.761 72.3122C448.046 77.88 446.689 84.3525 446.689 91.7298V145.807H433.744Z" fill="white"/>
<path d="M377.349 148.73C367.883 148.73 359.567 146.642 352.398 142.466C345.23 138.29 339.662 132.166 335.695 124.092C331.728 116.019 329.744 106.345 329.744 95.0704C329.744 85.0485 331.797 76.0357 335.904 68.032C340.01 60.0283 345.612 53.7646 352.711 49.2408C359.81 44.717 367.744 42.4551 376.513 42.4551C385.979 42.4551 394.052 44.6126 400.733 48.9276C407.415 53.2426 412.495 59.3323 415.975 67.1968C419.455 75.0613 421.195 84.2133 421.195 94.6529V97.3672H342.689C342.689 105.997 344.151 113.374 347.074 119.499C349.997 125.624 354.103 130.287 359.393 133.488C364.682 136.689 370.737 138.29 377.557 138.29C385.631 138.29 392.347 136.376 397.706 132.548C403.065 128.721 406.371 122.979 407.623 115.323H420.568C419.594 121.726 417.332 127.433 413.783 132.444C410.233 137.455 405.362 141.422 399.167 144.345C392.973 147.268 385.7 148.73 377.349 148.73ZM407.415 87.554C407.275 77.1144 404.492 68.7627 399.063 62.499C393.634 56.2353 386.118 53.1034 376.513 53.1034C366.909 53.1034 359.497 56.3397 353.442 62.8122C347.387 69.2847 343.942 77.532 343.107 87.554H407.415Z" fill="white"/>
<path d="M222.723 145.455L192.405 45.0918H204.689L228.473 127.879H229.323L253.041 45.0918H265.391L288.914 127.683H289.828L313.612 45.0918H325.897L295.578 145.455H283.556L259.772 63.1912H258.53L234.746 145.455H222.723Z" fill="white"/>
<path d="M141.933 147.603C133.029 147.603 125.154 145.344 118.308 140.824C111.507 136.305 106.182 130.063 102.334 122.099C98.486 114.09 96.562 104.85 96.562 94.3798C96.562 83.8201 98.486 74.5357 102.334 66.5265C106.182 58.4725 111.507 52.2083 118.308 47.7338C125.154 43.2147 133.029 40.9551 141.933 40.9551C150.837 40.9551 158.689 43.2147 165.491 47.7338C172.292 52.253 177.616 58.5172 181.464 66.5265C185.357 74.5357 187.303 83.8201 187.303 94.3798C187.303 104.85 185.379 114.09 181.531 122.099C177.683 130.063 172.337 136.305 165.491 140.824C158.689 145.344 150.837 147.603 141.933 147.603ZM141.933 136.663C149.092 136.663 155.155 134.739 160.121 130.891C165.088 127.043 168.846 121.92 171.397 115.521C173.992 109.123 175.29 102.076 175.29 94.3798C175.29 86.6838 173.992 79.6142 171.397 73.171C168.846 66.7278 165.088 61.5598 160.121 57.6671C155.155 53.7743 149.092 51.8279 141.933 51.8279C134.818 51.8279 128.756 53.7743 123.744 57.6671C118.778 61.5598 114.997 66.7278 112.402 73.171C109.851 79.6142 108.576 86.6838 108.576 94.3798C108.576 102.076 109.851 109.123 112.402 115.521C114.997 121.92 118.778 127.043 123.744 130.891C128.711 134.739 134.774 136.663 141.933 136.663Z" fill="white"/>
<path d="M0 145V0H44.5337C54.3253 0 62.4999 1.98242 69.0575 5.94727C75.6601 9.86491 80.6233 15.1986 83.947 21.9482C87.3157 28.6979 89 36.2972 89 44.7461C89 53.195 87.3381 60.8179 84.0144 67.6147C80.6906 74.3644 75.7499 79.7217 69.1923 83.6865C62.6346 87.6042 54.4825 89.563 44.7358 89.563H9.70174V77.6685H44.3989C51.6303 77.6685 57.6265 76.2524 62.3876 73.4204C67.1486 70.5412 70.6969 66.6235 73.0325 61.6675C75.4131 56.7114 76.6033 51.071 76.6033 44.7461C76.6033 38.4212 75.4131 32.7808 73.0325 27.8247C70.6969 22.8687 67.1262 18.9746 62.3202 16.1426C57.5592 13.3105 51.518 11.8945 44.1968 11.8945H12.5988V145H0Z" fill="white"/>
<defs>
<clipPath id="clip0_2709_4457">
<rect width="951.881" height="190" fill="white" transform="translate(1005)"/>
</clipPath>
</defs>
</svg>
