<?xml version="1.0" encoding="UTF-8"?>
<svg id="Layer_2" data-name="Layer 2" xmlns="http://www.w3.org/2000/svg" viewBox="0 0 197.65 252.77">
  <defs>
    <style>
      .cls-1 {
        fill: #00ffc6;
        fill-rule: evenodd;
      }
    </style>
  </defs>
  <g id="Layer_1-2" data-name="Layer 1">
    <g>
      <path class="cls-1" d="M113.54,6.07l78.04,78.04c8.09,8.09,8.09,21.33,0,29.42l-34.54,34.54-46.6-46.6c-6.39-6.39-16.84-6.39-23.23,0l-46.6,46.6L6.07,113.53c-8.09-8.09-8.09-21.33,0-29.42L84.11,6.07c8.09-8.09,21.33-8.09,29.42,0"/>
      <path class="cls-1" d="M157.04,148.07l15.03,15.03c6.39,6.39,6.39,16.84,0,23.23l-61.64,61.64c-6.39,6.39-16.84,6.39-23.23,0l-61.63-61.64c-6.39-6.39-6.39-16.84,0-23.23l61.63-61.63-46.6,46.6,4.48,4.48c29.55,29.55,77.91,29.55,107.46,0l4.49-4.48Z"/>
    </g>
  </g>
</svg>